<svg xmlns="http://www.w3.org/2000/svg" viewBox="0 0 100 100" width="100" height="100">
  <!-- 外圈光环 -->
  <circle cx="50" cy="50" r="45" fill="none" stroke="#FFD700" stroke-width="3" opacity="0.8"/>
  
  <!-- 金牌主体 -->
  <circle cx="50" cy="50" r="35" fill="#FFD700" stroke="#DAA520" stroke-width="2"/>
  
  <!-- 内圈装饰 -->
  <circle cx="50" cy="50" r="25" fill="none" stroke="#DAA520" stroke-width="1.5"/>
  
  <!-- 星星装饰 -->
  <g fill="#DAA520">
    <polygon points="50,15 52,20 57,20 53,24 55,29 50,26 45,29 47,24 43,20 48,20" opacity="0.8"/>
    <polygon points="85,50 80,52 80,57 76,53 71,55 74,50 71,45 76,47 80,43 80,48" opacity="0.6"/>
    <polygon points="15,50 20,52 20,57 24,53 29,55 26,50 29,45 24,47 20,43 20,48" opacity="0.6"/>
    <polygon points="50,85 52,80 57,80 53,76 55,71 50,74 45,71 47,76 43,80 48,80" opacity="0.6"/>
  </g>
  
  <!-- 中心装饰 -->
  <circle cx="50" cy="50" r="8" fill="#DAA520"/>
  <circle cx="50" cy="50" r="4" fill="#FFD700"/>
  
  <!-- 挂绳 -->
  <rect x="45" y="5" width="10" height="8" rx="2" fill="#8B4513"/>
  <rect x="47" y="3" width="6" height="4" rx="1" fill="#A0522D"/>
</svg>
